<svg xmlns="http://www.w3.org/2000/svg" xmlns:xlink="http://www.w3.org/1999/xlink" width="500" zoomAndPan="magnify" viewBox="0 0 375 374.999991" height="500" preserveAspectRatio="xMidYMid meet" version="1.0"><defs><clipPath id="1780377128"><path d="M 187.5 0 C 83.945312 0 0 83.945312 0 187.5 C 0 291.054688 83.945312 375 187.5 375 C 291.054688 375 375 291.054688 375 187.5 C 375 83.945312 291.054688 0 187.5 0 Z M 187.5 0 " clip-rule="nonzero"/></clipPath><clipPath id="322b165c5b"><path d="M 138 201 L 187 201 L 187 298 L 138 298 Z M 138 201 " clip-rule="nonzero"/></clipPath><clipPath id="9e304a6431"><path d="M 186.738281 207.898438 L 156.4375 297.101562 L 138.550781 291.027344 L 168.851562 201.820312 Z M 186.738281 207.898438 " clip-rule="nonzero"/></clipPath><clipPath id="1591d6548a"><path d="M 173 201 L 223 201 L 223 298 L 173 298 Z M 173 201 " clip-rule="nonzero"/></clipPath><clipPath id="326d401ee5"><path d="M 191.40625 201.980469 L 222.765625 290.816406 L 204.953125 297.105469 L 173.59375 208.265625 Z M 191.40625 201.980469 " clip-rule="nonzero"/></clipPath><clipPath id="f86fc1de4f"><path d="M 168.945312 201.980469 L 191.328125 201.980469 L 191.328125 220.871094 L 168.945312 220.871094 Z M 168.945312 201.980469 " clip-rule="nonzero"/></clipPath><clipPath id="cc71cc1c7a"><path d="M 204 94 L 292 94 L 292 291 L 204 291 Z M 204 94 " clip-rule="nonzero"/></clipPath><clipPath id="470a421c61"><path d="M 291.023438 100.9375 L 222.699219 290.632812 L 204.929688 284.230469 L 273.253906 94.535156 Z M 291.023438 100.9375 " clip-rule="nonzero"/></clipPath><clipPath id="b3840c0478"><path d="M 272 83 L 350 83 L 350 115 L 272 115 Z M 272 83 " clip-rule="nonzero"/></clipPath><clipPath id="48e17c89d4"><path d="M 342.992188 120.179688 L 272.867188 95.117188 L 279.03125 77.871094 L 349.15625 102.933594 Z M 342.992188 120.179688 " clip-rule="nonzero"/></clipPath><clipPath id="7b4c23af66"><path d="M 327.535156 114.65625 L 272.902344 95.128906 L 294.523438 83.410156 L 349.15625 102.933594 Z M 327.535156 114.65625 " clip-rule="nonzero"/></clipPath><clipPath id="29d70c36a0"><path d="M 251 149 L 329 149 L 329 181 L 251 181 Z M 251 149 " clip-rule="nonzero"/></clipPath><clipPath id="1b1c2b3a07"><path d="M 321.945312 186.222656 L 251.820312 161.160156 L 257.984375 143.914062 L 328.109375 168.976562 Z M 321.945312 186.222656 " clip-rule="nonzero"/></clipPath><clipPath id="0b459690eb"><path d="M 306.488281 180.699219 L 251.851562 161.171875 L 273.472656 149.453125 L 328.109375 168.976562 Z M 306.488281 180.699219 " clip-rule="nonzero"/></clipPath><clipPath id="18e702197f"><path d="M 73 103 L 157 103 L 157 291 L 73 291 Z M 73 103 " clip-rule="nonzero"/></clipPath><clipPath id="848ba986fd"><path d="M 91.773438 103.792969 L 156.328125 284.445312 L 138.542969 290.804688 L 73.984375 110.148438 Z M 91.773438 103.792969 " clip-rule="nonzero"/></clipPath><clipPath id="7ba79fcd8d"><path d="M 32 83 L 139 83 L 139 142 L 32 142 Z M 32 83 " clip-rule="nonzero"/></clipPath><clipPath id="f6a32a13c3"><path d="M 144.367188 100.332031 L 32.023438 141.167969 L 25.765625 123.957031 L 138.113281 83.121094 Z M 144.367188 100.332031 " clip-rule="nonzero"/></clipPath><clipPath id="5caae720da"><path d="M 128.941406 105.941406 L 32.085938 141.144531 L 41.257812 118.324219 L 138.113281 83.121094 Z M 128.941406 105.941406 " clip-rule="nonzero"/></clipPath></defs><g clip-path="url(#1780377128)"><rect x="-37.5" width="450" fill="#ffffff" y="-37.499999" height="449.999989" fill-opacity="1"/></g><g clip-path="url(#322b165c5b)"><g clip-path="url(#9e304a6431)"><path fill="#000000" d="M 186.738281 207.898438 L 156.433594 297.113281 L 138.546875 291.039062 L 168.851562 201.820312 Z M 186.738281 207.898438 " fill-opacity="1" fill-rule="nonzero"/></g></g><g clip-path="url(#1591d6548a)"><g clip-path="url(#326d401ee5)"><path fill="#000000" d="M 191.40625 201.980469 L 222.769531 290.828125 L 204.957031 297.117188 L 173.59375 208.265625 Z M 191.40625 201.980469 " fill-opacity="1" fill-rule="nonzero"/></g></g><g clip-path="url(#f86fc1de4f)"><path fill="#000000" d="M 168.945312 201.980469 L 191.300781 201.980469 L 191.300781 220.871094 L 168.945312 220.871094 Z M 168.945312 201.980469 " fill-opacity="1" fill-rule="nonzero"/></g><g clip-path="url(#cc71cc1c7a)"><g clip-path="url(#470a421c61)"><path fill="#000000" d="M 291.023438 100.9375 L 222.691406 290.660156 L 204.917969 284.257812 L 273.253906 94.535156 Z M 291.023438 100.9375 " fill-opacity="1" fill-rule="nonzero"/></g></g><g clip-path="url(#b3840c0478)"><g clip-path="url(#48e17c89d4)"><g clip-path="url(#7b4c23af66)"><path fill="#4c77f6" d="M 342.992188 120.179688 L 272.867188 95.117188 L 279.03125 77.871094 L 349.15625 102.933594 Z M 342.992188 120.179688 " fill-opacity="1" fill-rule="nonzero"/></g></g></g><g clip-path="url(#29d70c36a0)"><g clip-path="url(#1b1c2b3a07)"><g clip-path="url(#0b459690eb)"><path fill="#4c77f6" d="M 321.945312 186.222656 L 251.820312 161.160156 L 257.984375 143.914062 L 328.109375 168.976562 Z M 321.945312 186.222656 " fill-opacity="1" fill-rule="nonzero"/></g></g></g><g clip-path="url(#18e702197f)"><g clip-path="url(#848ba986fd)"><path fill="#000000" d="M 91.773438 103.792969 L 156.328125 284.445312 L 138.539062 290.800781 L 73.984375 110.148438 Z M 91.773438 103.792969 " fill-opacity="1" fill-rule="nonzero"/></g></g><g clip-path="url(#7ba79fcd8d)"><g clip-path="url(#f6a32a13c3)"><g clip-path="url(#5caae720da)"><path fill="#ffbd59" d="M 144.367188 100.332031 L 32.089844 141.144531 L 25.835938 123.933594 L 138.113281 83.121094 Z M 144.367188 100.332031 " fill-opacity="1" fill-rule="nonzero"/></g></g></g></svg>