<svg xmlns="http://www.w3.org/2000/svg" xmlns:xlink="http://www.w3.org/1999/xlink" width="500" zoomAndPan="magnify" viewBox="0 0 375 374.999991" height="500" preserveAspectRatio="xMidYMid meet" version="1.0"><defs><clipPath id="ecaed32f14"><path d="M 187.5 0 C 83.945312 0 0 83.945312 0 187.5 C 0 291.054688 83.945312 375 187.5 375 C 291.054688 375 375 291.054688 375 187.5 C 375 83.945312 291.054688 0 187.5 0 Z M 187.5 0 " clip-rule="nonzero"/></clipPath><clipPath id="1e8ec8a4c1"><path d="M 132 165 L 196 165 L 196 287 L 132 287 Z M 132 165 " clip-rule="nonzero"/></clipPath><clipPath id="ab73764af0"><path d="M 195.984375 174.117188 L 154.90625 286.269531 L 132.417969 278.03125 L 173.496094 165.882812 Z M 195.984375 174.117188 " clip-rule="nonzero"/></clipPath><clipPath id="f4397a8489"><path d="M 173 165 L 238 165 L 238 287 L 173 287 Z M 173 165 " clip-rule="nonzero"/></clipPath><clipPath id="b5556bebbb"><path d="M 196.363281 165.878906 L 237.304688 278.054688 L 214.808594 286.265625 L 173.867188 174.089844 Z M 196.363281 165.878906 " clip-rule="nonzero"/></clipPath><clipPath id="4c0a816b0d"><path d="M 173.871094 165.878906 L 195.992188 165.878906 L 195.992188 189.824219 L 173.871094 189.824219 Z M 173.871094 165.878906 " clip-rule="nonzero"/></clipPath><clipPath id="fbbe442018"><path d="M 214 125 L 289 125 L 289 278 L 214 278 Z M 214 125 " clip-rule="nonzero"/></clipPath><clipPath id="4bbd6d6720"><path d="M 288.773438 133.84375 L 236.96875 277.675781 L 214.4375 269.5625 L 266.242188 125.726562 Z M 288.773438 133.84375 " clip-rule="nonzero"/></clipPath><clipPath id="7e44ebe302"><path d="M 265 111 L 363 111 L 363 152 L 265 152 Z M 265 111 " clip-rule="nonzero"/></clipPath><clipPath id="b50c963bd6"><path d="M 354.441406 158.058594 L 265.539062 126.285156 L 273.351562 104.421875 L 362.253906 136.195312 Z M 354.441406 158.058594 " clip-rule="nonzero"/></clipPath><clipPath id="10c01f6464"><path d="M 334.84375 151.054688 L 265.582031 126.300781 L 292.992188 111.441406 L 362.253906 136.195312 Z M 334.84375 151.054688 " clip-rule="nonzero"/></clipPath><clipPath id="9d0102d061"><path d="M 248 169 L 345 169 L 345 209 L 248 209 Z M 248 169 " clip-rule="nonzero"/></clipPath><clipPath id="46df4dcf3f"><path d="M 337.0625 215.90625 L 248.160156 184.132812 L 255.972656 162.273438 L 344.875 194.042969 Z M 337.0625 215.90625 " clip-rule="nonzero"/></clipPath><clipPath id="6b4b6d668e"><path d="M 317.464844 208.902344 L 248.203125 184.148438 L 275.613281 169.289062 L 344.875 194.042969 Z M 317.464844 208.902344 " clip-rule="nonzero"/></clipPath><clipPath id="c855ae456a"><path d="M 80 125 L 156 125 L 156 278 L 80 278 Z M 80 125 " clip-rule="nonzero"/></clipPath><clipPath id="4a72d3e0ca"><path d="M 103.511719 125.519531 L 155.003906 269.621094 L 132.453125 277.679688 L 80.960938 133.578125 Z M 103.511719 125.519531 " clip-rule="nonzero"/></clipPath><clipPath id="cc13670f6c"><path d="M 20 88 L 156 88 L 156 163 L 20 163 Z M 20 88 " clip-rule="nonzero"/></clipPath><clipPath id="b9e505e007"><path d="M 163.011719 110.546875 L 20.582031 162.316406 L 12.652344 140.5 L 155.078125 88.726562 Z M 163.011719 110.546875 " clip-rule="nonzero"/></clipPath><clipPath id="c07f41f867"><path d="M 143.453125 117.65625 L 20.664062 162.289062 L 32.289062 133.359375 L 155.078125 88.726562 Z M 143.453125 117.65625 " clip-rule="nonzero"/></clipPath></defs><g clip-path="url(#ecaed32f14)"><rect x="-37.5" width="450" fill="#ffffff" y="-37.499999" height="449.999989" fill-opacity="1"/></g><g clip-path="url(#1e8ec8a4c1)"><g clip-path="url(#ab73764af0)"><path fill="#000000" d="M 195.984375 174.117188 L 154.898438 286.285156 L 132.414062 278.046875 L 173.496094 165.882812 Z M 195.984375 174.117188 " fill-opacity="1" fill-rule="nonzero"/></g></g><g clip-path="url(#f4397a8489)"><g clip-path="url(#b5556bebbb)"><path fill="#000000" d="M 196.363281 165.878906 L 237.316406 278.09375 L 214.820312 286.300781 L 173.867188 174.089844 Z M 196.363281 165.878906 " fill-opacity="1" fill-rule="nonzero"/></g></g><g clip-path="url(#4c0a816b0d)"><path fill="#000000" d="M 173.871094 165.878906 L 195.992188 165.878906 L 195.992188 189.816406 L 173.871094 189.816406 Z M 173.871094 165.878906 " fill-opacity="1" fill-rule="nonzero"/></g><g clip-path="url(#fbbe442018)"><g clip-path="url(#4bbd6d6720)"><path fill="#000000" d="M 288.773438 133.84375 L 236.976562 277.648438 L 214.445312 269.53125 L 266.242188 125.726562 Z M 288.773438 133.84375 " fill-opacity="1" fill-rule="nonzero"/></g></g><g clip-path="url(#7e44ebe302)"><g clip-path="url(#b50c963bd6)"><g clip-path="url(#10c01f6464)"><path fill="#4c77f6" d="M 354.441406 158.058594 L 265.539062 126.285156 L 273.351562 104.421875 L 362.253906 136.195312 Z M 354.441406 158.058594 " fill-opacity="1" fill-rule="nonzero"/></g></g></g><g clip-path="url(#9d0102d061)"><g clip-path="url(#46df4dcf3f)"><g clip-path="url(#6b4b6d668e)"><path fill="#4c77f6" d="M 337.0625 215.90625 L 248.160156 184.132812 L 255.972656 162.273438 L 344.875 194.042969 Z M 337.0625 215.90625 " fill-opacity="1" fill-rule="nonzero"/></g></g></g><g clip-path="url(#c855ae456a)"><g clip-path="url(#4a72d3e0ca)"><path fill="#000000" d="M 103.511719 125.519531 L 155.007812 269.628906 L 132.457031 277.6875 L 80.960938 133.578125 Z M 103.511719 125.519531 " fill-opacity="1" fill-rule="nonzero"/></g></g><g clip-path="url(#cc13670f6c)"><g clip-path="url(#b9e505e007)"><g clip-path="url(#c07f41f867)"><path fill="#ffbd59" d="M 163.011719 110.546875 L 20.667969 162.289062 L 12.738281 140.46875 L 155.078125 88.726562 Z M 163.011719 110.546875 " fill-opacity="1" fill-rule="nonzero"/></g></g></g></svg>