<svg xmlns="http://www.w3.org/2000/svg" xmlns:xlink="http://www.w3.org/1999/xlink" width="500" zoomAndPan="magnify" viewBox="0 0 375 374.999991" height="500" preserveAspectRatio="xMidYMid meet" version="1.0"><defs><clipPath id="25cd85987c"><path d="M 0 0 L 374.78125 0 L 374.78125 375 L 0 375 Z M 0 0 " clip-rule="nonzero"/></clipPath><clipPath id="c04b26c9ee"><path d="M 187.28125 0 C 83.730469 0 -0.21875 83.945312 -0.21875 187.5 C -0.21875 291.054688 83.730469 375 187.28125 375 C 290.835938 375 374.78125 291.054688 374.78125 187.5 C 374.78125 83.945312 290.835938 0 187.28125 0 Z M 187.28125 0 " clip-rule="nonzero"/></clipPath><clipPath id="b74557316e"><path d="M 57.222656 217.597656 L 317.308594 217.597656 L 317.308594 375 L 57.222656 375 Z M 57.222656 217.597656 " clip-rule="nonzero"/></clipPath><clipPath id="d26b7ca3b4"><path d="M 187.5 217.597656 C 115.890625 217.597656 57.839844 252.832031 57.839844 296.296875 C 57.839844 339.765625 115.890625 375 187.5 375 C 259.109375 375 317.160156 339.765625 317.160156 296.296875 C 317.160156 252.832031 259.109375 217.597656 187.5 217.597656 Z M 187.5 217.597656 " clip-rule="nonzero"/></clipPath><clipPath id="b8e76834e9"><path d="M 78.417969 201.53125 L 296.523438 201.53125 L 296.523438 338.746094 L 78.417969 338.746094 Z M 78.417969 201.53125 " clip-rule="nonzero"/></clipPath><clipPath id="9fd2709add"><path d="M 69.164062 256.066406 L 92.308594 256.066406 L 92.308594 338.789062 L 69.164062 338.789062 Z M 69.164062 256.066406 " clip-rule="nonzero"/></clipPath><clipPath id="8100865e15"><path d="M 80.738281 256.066406 C 74.34375 256.066406 69.164062 274.574219 69.164062 297.398438 C 69.164062 320.226562 74.34375 338.730469 80.738281 338.730469 C 87.128906 338.730469 92.308594 320.226562 92.308594 297.398438 C 92.308594 274.574219 87.128906 256.066406 80.738281 256.066406 Z M 80.738281 256.066406 " clip-rule="nonzero"/></clipPath><clipPath id="ba4091d41c"><path d="M 78.417969 128.773438 L 296.828125 128.773438 L 296.828125 339 L 78.417969 339 Z M 78.417969 128.773438 " clip-rule="nonzero"/></clipPath><clipPath id="48331bd55a"><path d="M 203 166 L 218 166 L 218 247.929688 L 203 247.929688 Z M 203 166 " clip-rule="nonzero"/></clipPath><clipPath id="89a44d079c"><path d="M 251 108 L 302.964844 108 L 302.964844 120 L 251 120 Z M 251 108 " clip-rule="nonzero"/></clipPath><clipPath id="37bc01f30c"><path d="M 213 9.464844 L 225 9.464844 L 225 69 L 213 69 Z M 213 9.464844 " clip-rule="nonzero"/></clipPath><clipPath id="c87e77c30f"><path d="M 126.15625 122 L 155 122 L 155 133 L 126.15625 133 Z M 126.15625 122 " clip-rule="nonzero"/></clipPath><clipPath id="a538c4f3e4"><path d="M 80.738281 336.855469 L 293.828125 336.855469 L 293.828125 340.605469 L 80.738281 340.605469 Z M 80.738281 336.855469 " clip-rule="nonzero"/></clipPath><clipPath id="42077fa881"><path d="M 78.417969 335.46875 L 85.574219 335.46875 L 85.574219 341.984375 L 78.417969 341.984375 Z M 78.417969 335.46875 " clip-rule="nonzero"/></clipPath><clipPath id="479a54b679"><path d="M 78.417969 338.726562 L 85.550781 335.46875 L 85.550781 341.984375 Z M 78.417969 338.726562 " clip-rule="nonzero"/></clipPath><clipPath id="8a0ca96958"><path d="M 289.214844 335.488281 L 296.523438 335.488281 L 296.523438 342.007812 L 289.214844 342.007812 Z M 289.214844 335.488281 " clip-rule="nonzero"/></clipPath><clipPath id="bce557610c"><path d="M 296.523438 338.75 L 289.234375 342.007812 L 289.234375 335.488281 Z M 296.523438 338.75 " clip-rule="nonzero"/></clipPath><clipPath id="d0ec8ac812"><path d="M 52.3125 234.976562 L 89.460938 234.976562 L 89.460938 326.242188 L 52.3125 326.242188 Z M 52.3125 234.976562 " clip-rule="nonzero"/></clipPath><clipPath id="e57e19ef5b"><path d="M 70.886719 234.976562 C 60.628906 234.976562 52.3125 255.378906 52.3125 280.550781 C 52.3125 305.71875 60.628906 326.125 70.886719 326.125 C 81.144531 326.125 89.460938 305.71875 89.460938 280.550781 C 89.460938 255.378906 81.144531 234.976562 70.886719 234.976562 Z M 70.886719 234.976562 " clip-rule="nonzero"/></clipPath><clipPath id="d6cd6be147"><path d="M 62 314 L 87 314 L 87 339 L 62 339 Z M 62 314 " clip-rule="nonzero"/></clipPath><clipPath id="c86852baa8"><path d="M 70.929688 314.777344 L 86.539062 330.976562 L 78.472656 338.75 L 62.859375 322.550781 Z M 70.929688 314.777344 " clip-rule="nonzero"/></clipPath><clipPath id="b9130305be"><path d="M 286.367188 234.976562 L 323.511719 234.976562 L 323.511719 326.242188 L 286.367188 326.242188 Z M 286.367188 234.976562 " clip-rule="nonzero"/></clipPath><clipPath id="343bb0dbd4"><path d="M 304.9375 234.976562 C 294.683594 234.976562 286.367188 255.378906 286.367188 280.550781 C 286.367188 305.71875 294.683594 326.125 304.9375 326.125 C 315.195312 326.125 323.511719 305.71875 323.511719 280.550781 C 323.511719 255.378906 315.195312 234.976562 304.9375 234.976562 Z M 304.9375 234.976562 " clip-rule="nonzero"/></clipPath><clipPath id="54d3556216"><path d="M 296 317 L 317 317 L 317 336 L 296 336 Z M 296 317 " clip-rule="nonzero"/></clipPath><clipPath id="0e0e62d0f9"><path d="M 296.523438 331.882812 L 313.515625 317.132812 L 316.3125 320.359375 L 299.324219 335.105469 Z M 296.523438 331.882812 " clip-rule="nonzero"/></clipPath><clipPath id="46db71dcfb"><path d="M 288.183594 250.601562 L 311.777344 250.601562 L 311.777344 333.269531 L 288.183594 333.269531 Z M 288.183594 250.601562 " clip-rule="nonzero"/></clipPath><clipPath id="4d7b53faa3"><path d="M 299.980469 250.601562 C 293.464844 250.601562 288.183594 269.105469 288.183594 291.929688 C 288.183594 314.757812 293.464844 333.261719 299.980469 333.261719 C 306.496094 333.261719 311.777344 314.757812 311.777344 291.929688 C 311.777344 269.105469 306.496094 250.601562 299.980469 250.601562 Z M 299.980469 250.601562 " clip-rule="nonzero"/></clipPath><clipPath id="ffd560b048"><path d="M 296 323 L 304 323 L 304 336 L 296 336 Z M 296 323 " clip-rule="nonzero"/></clipPath><clipPath id="8751f09891"><path d="M 299.667969 336.855469 L 292.871094 334.84375 L 296.285156 323.296875 L 303.082031 325.308594 Z M 299.667969 336.855469 " clip-rule="nonzero"/></clipPath><clipPath id="25c1a8b521"><path d="M 296.269531 335.847656 L 296.28125 323.3125 L 303.078125 325.324219 Z M 296.269531 335.847656 " clip-rule="nonzero"/></clipPath><clipPath id="1cc0f2a2ca"><path d="M 296 326 L 306 326 L 306 339 L 296 339 Z M 296 326 " clip-rule="nonzero"/></clipPath><clipPath id="7640932b87"><path d="M 300.128906 340.226562 L 293.820312 337.003906 L 299.296875 326.277344 L 305.609375 329.503906 Z M 300.128906 340.226562 " clip-rule="nonzero"/></clipPath><clipPath id="889be50d9d"><path d="M 296.976562 338.613281 L 299.289062 326.292969 L 305.601562 329.519531 Z M 296.976562 338.613281 " clip-rule="nonzero"/></clipPath><clipPath id="b71daf27e1"><path d="M 295 326 L 303 326 L 303 339 L 295 339 Z M 295 326 " clip-rule="nonzero"/></clipPath><clipPath id="7ce52de847"><path d="M 300.671875 339.488281 L 293.148438 338.128906 L 295.285156 326.285156 L 302.808594 327.644531 Z M 300.671875 339.488281 " clip-rule="nonzero"/></clipPath><clipPath id="96da899097"><path d="M 296.910156 338.808594 L 295.285156 326.296875 L 302.808594 327.652344 Z M 296.910156 338.808594 " clip-rule="nonzero"/></clipPath><clipPath id="3541a3bc58"><path d="M 69 326 L 79 326 L 79 340 L 69 340 Z M 69 326 " clip-rule="nonzero"/></clipPath><clipPath id="495c6e6464"><path d="M 81.546875 338.101562 L 75.878906 341.324219 L 69.160156 329.507812 L 74.824219 326.285156 Z M 81.546875 338.101562 " clip-rule="nonzero"/></clipPath><clipPath id="019a0b75ce"><path d="M 78.710938 339.714844 L 69.160156 329.511719 L 74.824219 326.289062 Z M 78.710938 339.714844 " clip-rule="nonzero"/></clipPath><clipPath id="36fe8d48c3"><path d="M 76 331 L 91 331 L 91 349 L 76 349 Z M 76 331 " clip-rule="nonzero"/></clipPath><clipPath id="7f38c35309"><path d="M 96.285156 345.074219 L 85.21875 352.140625 L 76.773438 338.910156 L 87.839844 331.847656 Z M 96.285156 345.074219 " clip-rule="nonzero"/></clipPath><clipPath id="18b762e671"><path d="M 90.75 348.609375 L 76.785156 338.929688 L 87.851562 331.863281 Z M 90.75 348.609375 " clip-rule="nonzero"/></clipPath></defs><g clip-path="url(#25cd85987c)"><g clip-path="url(#c04b26c9ee)"><path fill="#ffffff" d="M -0.21875 0 L 374.78125 0 L 374.78125 375 L -0.21875 375 Z M -0.21875 0 " fill-opacity="1" fill-rule="nonzero"/></g></g><g clip-path="url(#b74557316e)"><g clip-path="url(#d26b7ca3b4)"><path fill="#4c77f6" d="M 57.839844 217.597656 L 317.308594 217.597656 L 317.308594 375 L 57.839844 375 Z M 57.839844 217.597656 " fill-opacity="1" fill-rule="nonzero"/></g></g><g clip-path="url(#b8e76834e9)"><path fill="#ffffff" d="M 78.417969 201.53125 L 296.570312 201.53125 L 296.570312 338.746094 L 78.417969 338.746094 Z M 78.417969 201.53125 " fill-opacity="1" fill-rule="nonzero"/></g><g clip-path="url(#9fd2709add)"><g clip-path="url(#8100865e15)"><path fill="#ffffff" d="M 69.164062 256.066406 L 92.308594 256.066406 L 92.308594 338.699219 L 69.164062 338.699219 Z M 69.164062 256.066406 " fill-opacity="1" fill-rule="nonzero"/></g></g><g clip-path="url(#ba4091d41c)"><path fill="#4c77f6" d="M 296.546875 338.714844 L 78.597656 338.714844 C 84.382812 333.65625 91.667969 325.296875 94.214844 322.976562 C 100.019531 317.703125 104.832031 311.429688 103.144531 302.792969 C 101.503906 294.382812 92.75 289.078125 89.964844 280.976562 C 87.375 273.449219 90.59375 264.90625 95.996094 259.070312 C 108.21875 245.871094 130.890625 240.632812 147.5 235.484375 C 156.179688 232.792969 170.660156 232.378906 174.199219 221.96875 C 175.371094 218.539062 174.128906 214.671875 171.949219 211.773438 C 169.777344 208.878906 166.761719 206.742188 163.867188 204.5625 C 156.113281 198.707031 148.371094 191.164062 147.527344 181.480469 C 146.8125 173.167969 151.566406 165.136719 157.964844 159.789062 C 164.898438 154.003906 173.066406 150.917969 181.527344 148.5625 C 191.074219 145.910156 202.085938 141.800781 202.5625 130.359375 C 202.585938 129.835938 202.605469 129.300781 202.664062 128.773438 L 208.554688 128.773438 C 210.402344 138.457031 208.441406 145.558594 199.90625 151.410156 C 194.738281 154.957031 189.597656 159.023438 186.875 164.667969 C 180.789062 177.300781 190.738281 182.058594 199.792969 187.40625 C 214.921875 196.328125 232.066406 201.222656 247.292969 209.96875 C 255.878906 214.90625 266.894531 223.175781 261.109375 234.285156 C 255.234375 245.554688 215.859375 249.410156 227.179688 268 C 244.132812 295.835938 286.457031 298.8125 295.664062 332.953125 C 296.160156 334.808594 296.460938 336.753906 296.546875 338.714844 Z M 296.546875 338.714844 " fill-opacity="1" fill-rule="nonzero"/></g><path fill="#ffbd59" d="M 244.566406 118.828125 C 246.714844 107.128906 243.796875 96.53125 235.835938 87.722656 C 228.695312 79.789062 219.527344 76.613281 208.878906 78.328125 C 192.238281 81.015625 168.789062 98.628906 168.097656 124.792969 C 168.023438 127.351562 168.484375 130.015625 169.148438 132.496094 C 169.660156 134.441406 171.273438 135.929688 173.5 135.339844 C 175.496094 134.800781 175.085938 132.882812 174.984375 131.347656 C 173.859375 113.273438 191.703125 92.894531 207.113281 88.285156 C 216.816406 85.367188 225.621094 88.160156 231.765625 96.300781 C 237.347656 103.699219 239.140625 112.042969 236.9375 121.054688 C 234.273438 131.984375 228.566406 140.636719 217.558594 144.707031 C 210.082031 147.472656 202.964844 146.320312 197.15625 140.714844 C 191.496094 135.261719 189.960938 128.300781 192.417969 120.953125 C 194.925781 113.398438 199.996094 107.972656 208.265625 106.617188 C 210.773438 106.207031 213.539062 106.359375 216.023438 106.949219 C 220.707031 108.074219 223.214844 112.324219 222.113281 116.984375 C 220.960938 121.769531 218.273438 125.558594 213.792969 127.863281 C 210.671875 129.453125 208.058594 129.425781 206.472656 127.839844 C 204.554688 125.917969 203.964844 122.335938 205.21875 119.519531 C 205.78125 118.265625 206.523438 117.113281 207.34375 115.601562 C 203.476562 113.835938 202.171875 114.089844 200.277344 116.652344 C 197.539062 120.335938 197.691406 126.355469 200.636719 130.425781 C 203.632812 134.570312 208.085938 135.824219 213.15625 133.929688 C 221.117188 130.988281 227.59375 121.539062 227.363281 113.066406 C 227.261719 109.304688 226.3125 105.769531 223.445312 103.109375 C 218.042969 98.089844 211.59375 95.632812 204.273438 96.65625 C 190.21875 98.601562 178.925781 113.835938 180.796875 127.941406 C 183.5625 148.496094 205.167969 159.277344 223.601562 149.1875 C 235.605469 142.609375 242.132812 132.035156 244.566406 118.828125 Z M 244.566406 118.828125 " fill-opacity="1" fill-rule="nonzero"/><g clip-path="url(#48331bd55a)"><path fill="#ffbd59" d="M 216.148438 239.351562 C 214.921875 217.414062 213.667969 195.449219 212.414062 173.507812 C 212.335938 172.125 212.308594 170.539062 211.617188 169.464844 C 210.875 168.285156 209.417969 166.902344 208.214844 166.828125 C 207.011719 166.75 205.140625 167.929688 204.578125 169.054688 C 203.707031 170.847656 203.324219 173.074219 203.375 175.097656 C 203.683594 186.257812 203.707031 197.472656 204.757812 208.554688 C 205.832031 219.640625 207.984375 230.621094 209.722656 241.65625 C 209.980469 243.191406 210.3125 244.882812 211.15625 246.109375 C 211.824219 247.082031 213.460938 248.082031 214.460938 247.902344 C 215.433594 247.75 216.636719 246.1875 216.867188 245.085938 C 217.277344 243.242188 216.96875 241.273438 216.96875 239.351562 C 216.714844 239.328125 216.429688 239.351562 216.148438 239.351562 Z M 216.148438 239.351562 " fill-opacity="1" fill-rule="nonzero"/></g><g clip-path="url(#89a44d079c)"><path fill="#ffbd59" d="M 303.035156 112.144531 C 302.78125 109.996094 301.066406 108.84375 296.789062 108.742188 C 290.519531 108.5625 284.246094 108.691406 278 108.691406 C 278 108.816406 278 108.972656 278 109.097656 C 271.726562 109.378906 265.457031 109.609375 259.210938 109.996094 C 257.492188 110.097656 255.675781 110.300781 254.140625 110.992188 C 253.066406 111.480469 251.632812 112.914062 251.683594 113.859375 C 251.757812 115.140625 252.808594 116.984375 253.910156 117.445312 C 256.265625 118.441406 258.902344 119.132812 261.4375 119.210938 C 269.089844 119.390625 276.769531 119.46875 284.425781 119.109375 C 288.90625 118.902344 293.410156 117.984375 297.8125 116.984375 C 301.832031 116.035156 303.292969 114.398438 303.035156 112.144531 Z M 303.035156 112.144531 " fill-opacity="1" fill-rule="nonzero"/></g><g clip-path="url(#37bc01f30c)"><path fill="#ffbd59" d="M 216.457031 68.933594 C 219.246094 69.113281 219.785156 66.78125 220.066406 64.683594 C 220.554688 61.074219 220.886719 57.4375 221.21875 53.804688 C 221.421875 51.550781 221.421875 49.273438 221.601562 47.019531 C 222.5 36.113281 223.421875 25.207031 224.34375 14.300781 C 225.238281 12.226562 224.574219 10.488281 222.34375 9.949219 C 220.347656 9.464844 218.914062 10.539062 218.199219 12.28125 C 217.609375 13.714844 217.226562 15.273438 217.046875 16.8125 C 215.972656 26.667969 214.765625 36.523438 214 46.40625 C 213.511719 52.445312 213.617188 58.566406 213.617188 64.632812 C 213.617188 66.550781 213.949219 68.777344 216.457031 68.933594 Z M 216.457031 68.933594 " fill-opacity="1" fill-rule="nonzero"/></g><path fill="#ffbd59" d="M 182.613281 162.425781 C 180.769531 161.785156 179.105469 162.320312 178.058594 163.984375 C 177.03125 165.597656 175.984375 167.238281 175.34375 169.003906 C 172.195312 177.65625 169.070312 186.335938 166.152344 195.0625 C 165.050781 198.339844 164.589844 201.824219 163.695312 205.945312 C 164.285156 206.761719 164.949219 208.632812 166.023438 208.914062 C 167.101562 209.195312 168.816406 208.144531 169.8125 207.199219 C 170.761719 206.304688 171.296875 204.84375 171.757812 203.5625 C 175.957031 191.964844 180.105469 180.34375 184.226562 168.722656 C 184.457031 168.082031 184.558594 167.363281 184.6875 166.699219 C 184.996094 164.78125 184.609375 163.117188 182.613281 162.425781 Z M 182.613281 162.425781 " fill-opacity="1" fill-rule="nonzero"/><path fill="#ffbd59" d="M 172.476562 33.296875 C 176.980469 45.894531 181.511719 58.460938 186.070312 71.03125 C 186.429688 72.003906 186.785156 73.15625 187.527344 73.769531 C 188.476562 74.566406 189.933594 75.488281 190.933594 75.257812 C 191.882812 75.050781 192.496094 73.414062 192.980469 72.746094 C 192.445312 70.316406 192.164062 68.601562 191.652344 66.9375 C 188.042969 54.953125 184.378906 43 180.71875 31.042969 C 180.464844 30.226562 180.15625 29.378906 179.695312 28.664062 C 178.519531 26.921875 176.929688 25.976562 174.804688 26.742188 C 172.730469 27.484375 171.914062 29.125 172.039062 31.25 C 172.09375 31.964844 172.246094 32.65625 172.476562 33.296875 Z M 172.476562 33.296875 " fill-opacity="1" fill-rule="nonzero"/><path fill="#ffbd59" d="M 239.011719 71.238281 C 239.601562 71.644531 240.980469 71.238281 241.851562 70.851562 C 242.59375 70.519531 243.132812 69.699219 243.773438 69.085938 C 247.714844 65.144531 251.757812 61.253906 255.601562 57.207031 C 259.441406 53.164062 263.152344 48.992188 266.8125 44.765625 C 267.914062 43.484375 268.578125 41.847656 269.167969 40.875 C 268.988281 37.980469 266.609375 36.652344 264.378906 37.878906 C 262.410156 38.953125 260.746094 40.566406 258.980469 41.976562 C 252.144531 47.453125 246 53.675781 240.929688 60.816406 C 239.34375 63.042969 238.320312 65.707031 237.449219 68.316406 C 237.167969 69.113281 238.167969 70.648438 239.011719 71.238281 Z M 239.011719 71.238281 " fill-opacity="1" fill-rule="nonzero"/><path fill="#ffbd59" d="M 277.640625 164.140625 C 271.703125 157.945312 265.277344 152.335938 257.777344 148.0625 C 256.574219 147.371094 255.292969 146.886719 254.652344 146.578125 C 250.453125 146.089844 248.558594 148.472656 249.890625 151.648438 C 250.351562 152.746094 251.070312 153.847656 251.9375 154.640625 C 256.058594 158.378906 260.078125 162.246094 264.484375 165.625 C 267.503906 167.929688 270.984375 169.71875 274.46875 171.257812 C 275.722656 171.792969 278.023438 171.359375 279.152344 170.460938 C 280.664062 169.257812 280.074219 167.289062 278.945312 165.726562 C 278.5625 165.1875 278.128906 164.625 277.640625 164.140625 Z M 277.640625 164.140625 " fill-opacity="1" fill-rule="nonzero"/><path fill="#ffbd59" d="M 159.90625 154.230469 C 158.242188 154.589844 156.554688 155.332031 155.195312 156.355469 C 146.925781 162.425781 138.734375 168.621094 130.542969 174.816406 C 130.003906 175.222656 129.289062 175.761719 129.1875 176.351562 C 128.980469 177.628906 128.648438 179.269531 129.238281 180.242188 C 129.828125 181.214844 131.4375 181.929688 132.667969 182.058594 C 133.742188 182.160156 135.023438 181.46875 135.996094 180.832031 C 145.136719 174.710938 153.710938 167.878906 161.316406 159.890625 C 162.132812 159.046875 162.671875 157.917969 163.207031 157.125 C 162.902344 154.847656 161.648438 153.847656 159.90625 154.230469 Z M 159.90625 154.230469 " fill-opacity="1" fill-rule="nonzero"/><path fill="#ffbd59" d="M 136.125 78.355469 C 143.214844 84.777344 150.410156 91.078125 157.652344 97.347656 C 158.78125 98.320312 160.339844 99.113281 161.800781 99.320312 C 162.773438 99.449219 163.925781 98.425781 165.28125 97.785156 C 164.359375 96.042969 163.976562 94.867188 163.234375 93.96875 C 161.699219 92.074219 160.085938 90.230469 158.34375 88.542969 C 152.867188 83.191406 147.386719 77.839844 141.730469 72.671875 C 139.503906 70.621094 137.300781 70.777344 135.664062 72.414062 C 133.949219 74.105469 133.898438 76.332031 136.125 78.355469 Z M 136.125 78.355469 " fill-opacity="1" fill-rule="nonzero"/><path fill="#ffbd59" d="M 248.96875 84.703125 C 250.222656 85.597656 251.476562 86.519531 252.296875 87.109375 C 263.40625 85.0625 273.777344 83.753906 283.246094 78.992188 C 284.324219 78.457031 285.550781 77.894531 286.242188 76.996094 C 286.882812 76.152344 287.214844 74.742188 286.984375 73.746094 C 286.832031 73.054688 285.5 72.492188 284.578125 72.210938 C 283.785156 71.980469 282.863281 72.132812 281.992188 72.261719 C 271.445312 73.847656 261.539062 77.636719 251.683594 81.425781 C 250.53125 81.859375 249.867188 83.574219 248.96875 84.703125 Z M 248.96875 84.703125 " fill-opacity="1" fill-rule="nonzero"/><path fill="#ffbd59" d="M 244.4375 173.328125 C 242.542969 170.257812 240.058594 167.492188 237.476562 164.933594 C 236.628906 164.089844 234.324219 163.703125 233.40625 164.265625 C 232.429688 164.855469 232.175781 166.828125 231.945312 168.261719 C 231.816406 169.027344 232.277344 169.976562 232.714844 170.71875 C 236.578125 177.09375 240.445312 183.46875 244.386719 189.789062 C 244.820312 190.480469 245.5625 191.097656 246.308594 191.507812 C 248.839844 192.886719 251.351562 191.328125 251.300781 188.023438 C 251.09375 187.433594 250.890625 186.386719 250.429688 185.464844 C 248.507812 181.367188 246.792969 177.144531 244.4375 173.328125 Z M 244.4375 173.328125 " fill-opacity="1" fill-rule="nonzero"/><g clip-path="url(#c87e77c30f)"><path fill="#ffbd59" d="M 142.652344 132.089844 C 142.652344 131.960938 142.675781 131.832031 142.675781 131.703125 C 145.109375 131.703125 147.542969 131.804688 149.949219 131.679688 C 151.996094 131.550781 154.554688 131.5 154.710938 128.761719 C 154.863281 126.355469 152.558594 125.917969 150.664062 125.558594 C 146.414062 124.714844 142.191406 123.820312 137.917969 123.203125 C 135.535156 122.847656 133.050781 122.71875 130.695312 122.972656 C 127.878906 123.28125 126.191406 125.226562 126.445312 127.351562 C 126.730469 129.835938 128.496094 130.832031 130.773438 131.0625 C 134.742188 131.421875 138.683594 131.730469 142.652344 132.089844 Z M 142.652344 132.089844 " fill-opacity="1" fill-rule="nonzero"/></g><g clip-path="url(#a538c4f3e4)"><path fill="#4c77f6" d="M 80.738281 336.855469 L 293.828125 336.855469 L 293.828125 340.605469 L 80.738281 340.605469 Z M 80.738281 336.855469 " fill-opacity="1" fill-rule="nonzero"/></g><g clip-path="url(#42077fa881)"><g clip-path="url(#479a54b679)"><path fill="#4c77f6" d="M 78.417969 341.984375 L 78.417969 335.46875 L 85.546875 335.46875 L 85.546875 341.984375 Z M 78.417969 341.984375 " fill-opacity="1" fill-rule="nonzero"/></g></g><g clip-path="url(#8a0ca96958)"><g clip-path="url(#bce557610c)"><path fill="#4c77f6" d="M 296.523438 335.488281 L 296.523438 342.007812 L 289.242188 342.007812 L 289.242188 335.488281 Z M 296.523438 335.488281 " fill-opacity="1" fill-rule="nonzero"/></g></g><g clip-path="url(#d0ec8ac812)"><g clip-path="url(#e57e19ef5b)"><path fill="#ffffff" d="M 52.3125 234.976562 L 89.460938 234.976562 L 89.460938 326.097656 L 52.3125 326.097656 Z M 52.3125 234.976562 " fill-opacity="1" fill-rule="nonzero"/></g></g><g clip-path="url(#d6cd6be147)"><g clip-path="url(#c86852baa8)"><path fill="#ffffff" d="M 70.929688 314.777344 L 86.539062 330.976562 L 78.46875 338.75 L 62.859375 322.550781 Z M 70.929688 314.777344 " fill-opacity="1" fill-rule="nonzero"/></g></g><g clip-path="url(#b9130305be)"><g clip-path="url(#343bb0dbd4)"><path fill="#ffffff" d="M 286.367188 234.976562 L 323.511719 234.976562 L 323.511719 326.097656 L 286.367188 326.097656 Z M 286.367188 234.976562 " fill-opacity="1" fill-rule="nonzero"/></g></g><g clip-path="url(#54d3556216)"><g clip-path="url(#0e0e62d0f9)"><path fill="#ffffff" d="M 296.523438 331.882812 L 313.519531 317.128906 L 316.316406 320.355469 L 299.324219 335.105469 Z M 296.523438 331.882812 " fill-opacity="1" fill-rule="nonzero"/></g></g><g clip-path="url(#46db71dcfb)"><g clip-path="url(#4d7b53faa3)"><path fill="#ffffff" d="M 288.183594 250.601562 L 311.777344 250.601562 L 311.777344 333.269531 L 288.183594 333.269531 Z M 288.183594 250.601562 " fill-opacity="1" fill-rule="nonzero"/></g></g><g clip-path="url(#ffd560b048)"><g clip-path="url(#8751f09891)"><g clip-path="url(#25c1a8b521)"><path fill="#ffffff" d="M 299.667969 336.855469 L 292.871094 334.84375 L 296.277344 323.324219 L 303.074219 325.332031 Z M 299.667969 336.855469 " fill-opacity="1" fill-rule="nonzero"/></g></g></g><g clip-path="url(#1cc0f2a2ca)"><g clip-path="url(#7640932b87)"><g clip-path="url(#889be50d9d)"><path fill="#ffffff" d="M 300.128906 340.226562 L 293.820312 337.003906 L 299.285156 326.304688 L 305.59375 329.527344 Z M 300.128906 340.226562 " fill-opacity="1" fill-rule="nonzero"/></g></g></g><g clip-path="url(#b71daf27e1)"><g clip-path="url(#7ce52de847)"><g clip-path="url(#96da899097)"><path fill="#ffffff" d="M 300.671875 339.488281 L 293.148438 338.128906 L 295.285156 326.285156 L 302.808594 327.644531 Z M 300.671875 339.488281 " fill-opacity="1" fill-rule="nonzero"/></g></g></g><g clip-path="url(#3541a3bc58)"><g clip-path="url(#495c6e6464)"><g clip-path="url(#019a0b75ce)"><path fill="#ffffff" d="M 81.546875 338.101562 L 75.878906 341.324219 L 69.160156 329.507812 L 74.824219 326.285156 Z M 81.546875 338.101562 " fill-opacity="1" fill-rule="nonzero"/></g></g></g><g clip-path="url(#36fe8d48c3)"><g clip-path="url(#7f38c35309)"><g clip-path="url(#18b762e671)"><path fill="#4c77f6" d="M 96.285156 345.074219 L 85.21875 352.140625 L 76.773438 338.910156 L 87.839844 331.847656 Z M 96.285156 345.074219 " fill-opacity="1" fill-rule="nonzero"/></g></g></g></svg>